<?xml version="1.0" encoding="UTF-8"?>
<svg id="_Слой_1" data-name="Слой 1" xmlns="http://www.w3.org/2000/svg" xmlns:xlink="http://www.w3.org/1999/xlink" version="1.1" viewBox="0 0 103 103">
  <defs>
    <style>
      .cls-1 {
        clip-path: url(#clippath);
      }

      .cls-2 {
        stroke-width: 0px;
      }

      .cls-2, .cls-3 {
        fill: none;
      }

      .cls-3 {
        stroke-width: 5px;
      }

      .cls-3, .cls-4 {
        stroke: #666;
      }

      .cls-4 {
        fill: #666;
        stroke-miterlimit: 10;
      }
    </style>
    <clipPath id="clippath">
      <rect class="cls-2" y="0" width="103" height="103"/>
    </clipPath>
  </defs>
  <g class="cls-1">
    <path class="cls-4" d="M34.3,17.4c.2,0,.3,0,.5,0,.5,0,1,0,1.5,0,.4,0,.7,0,1.1,0,1.2,0,2.4,0,3.6,0,.4,0,.8,0,1.2,0,1.9,0,3.9,0,5.8,0,2.2,0,4.5,0,6.7,0,1.7,0,3.5,0,5.2,0,1,0,2.1,0,3.1,0,1,0,1.9,0,2.9,0,.4,0,.7,0,1.1,0,3,0,5.8.3,8.5,1.8q.2.1.4.2c1.2.7,2.3,1.4,3.3,2.4.2.1.3.3.5.4,2.6,2.4,4.2,5.7,5.9,8.7q.1.2.2.4c.2.4.4.7.6,1.1.1.2.3.4.4.7.1.2.2.5.3.7.6.6.6.7,1.4.7.4,0,.8,0,1.2,0q.3,0,.6,0c.7,0,1.3,0,2,0,.6,0,1.3,0,1.9,0,.4,0,.8,0,1.2,0,1.2,0,1.9.1,2.8.9.8.8.9,1.5,1,2.6,0,1.1-.2,1.7-1,2.6-1.1,1-2.1,1-3.5,1-.2,0-.4,0-.6,0-.5,0-1,0-1.5,0q.2.3.5.6c3.5,4.5,6,9.4,6,15.3,0,.2,0,.4,0,.6,0,.7,0,1.4,0,2.1,0,.5,0,1,0,1.5,0,1,0,2.1,0,3.1,0,1.3,0,2.6,0,3.9,0,1,0,2,0,3,0,.5,0,1,0,1.4,0,4-.3,6.8-3.1,9.8-2.2,2.1-4.7,2.7-7.6,2.7q-.4,0-.7,0c-.5,0-1,0-1.5,0-.8,0-1.5,0-2.3,0-.5,0-1,0-1.5,0-.2,0-.4,0-.7,0-3,0-5.3-1.2-7.4-3.2-2-2.1-2.6-4.3-2.6-7.2H31.1v2.1c-.5,2.6-2.2,5-4.3,6.5-2,1.3-3.9,1.7-6.3,1.7q-.4,0-.7,0c-.5,0-1,0-1.5,0-.8,0-1.5,0-2.3,0-.5,0-1,0-1.5,0-.2,0-.4,0-.7,0-3,0-5.3-1.2-7.4-3.2-2-2.1-2.7-4.5-2.7-7.3,0-.2,0-.4,0-.6,0-.7,0-1.4,0-2.1,0-.5,0-1,0-1.5,0-1,0-2,0-3.1,0-1.3,0-2.6,0-3.9,0-1,0-2,0-3,0-.5,0-1,0-1.4,0-7.2,2.1-12.5,6.5-18.1-.1,0-.2,0-.4,0-.6,0-1.1,0-1.7,0-.2,0-.4,0-.6,0-1.5,0-2.3-.4-3.4-1.5-.5-1.1-.5-2.1-.3-3.3.5-1.1,1.1-1.6,2.1-2.1.7-.1,1.5,0,2.2,0,.2,0,.4,0,.6,0,.7,0,1.3,0,2,0,.5,0,.9,0,1.4,0,1.1,0,2.2,0,3.3,0q0-.2.2-.4c.3-.7.6-1.3,1-2q.1-.2.2-.4c.2-.3.3-.5.5-.8.2-.4.5-.8.7-1.2q3.2-5.4,5.3-7.5c.1-.1.3-.3.4-.4,2.8-2.7,6.6-4.3,10.5-4.3ZM27.7,27.8c-1,1.2-1.7,2.6-2.5,3.9-.3.5-.5.9-.8,1.4-.2.3-.3.6-.5.9-.4.6-.7,1.2-1.2,1.8q-.4.6-.4,1.2c.5.4,1,.7,1.6,1,.2,0,.3.2.5.3,4.2,2.5,8.1,3,12.9,3,.3,0,.7,0,1,0,.9,0,1.8,0,2.8,0,.6,0,1.2,0,1.7,0,2,0,4.1,0,6.1,0,1.9,0,3.8,0,5.6,0,1.6,0,3.2,0,4.9,0,1,0,1.9,0,2.9,0,.9,0,1.8,0,2.7,0,.3,0,.7,0,1,0,1.7,0,3.4,0,5.1-.2.1,0,.3,0,.4,0,3.4-.4,6.4-2.1,9.1-4-.1-.7-.4-1.2-.7-1.8-.1-.2-.2-.4-.3-.5q-.2-.3-.3-.6t-.3-.6q-3.3-5.7-8.8-8.9c-1.8-.4-3.7-.4-5.6-.4-.3,0-.6,0-.9,0-.8,0-1.7,0-2.5,0-.5,0-1.1,0-1.6,0-1.9,0-3.7,0-5.6,0-1.7,0-3.5,0-5.2,0-1.5,0-3,0-4.5,0-.9,0-1.8,0-2.7,0-.8,0-1.7,0-2.5,0-.3,0-.6,0-.9,0-4.1,0-7.5.6-10.5,3.6ZM18.1,42.8q-.4.4-.7.9-.2.3-.4.6c-.2.2-.3.4-.5.6q-.2.3-.5.6c-4,5.4-5.4,10.1-5.4,16.8,0,.2,0,.4,0,.6,0,1,0,1.9,0,2.9,0,1,0,2,0,3,0,.8,0,1.5,0,2.3,0,.4,0,.7,0,1.1q-.1,2.9,1,5.5c1.5,1.4,3.5,1.2,5.4,1.2.5,0,.9,0,1.4,0q2.5,0,4.8-1c1.4-1.5,1.2-3.5,1.2-5.5,0-1.2.1-2,1-3,1-.8,1.9-.7,3.1-.7.2,0,.4,0,.6,0,.7,0,1.4,0,2.1,0,.5,0,1,0,1.5,0,1.3,0,2.7,0,4,0,1.1,0,2.2,0,3.4,0,2.8,0,5.6,0,8.4,0,2.4,0,4.8,0,7.3,0,2.5,0,5,0,7.5,0,1.4,0,2.8,0,4.2,0,1.3,0,2.6,0,3.9,0,.5,0,1,0,1.4,0,.7,0,1.3,0,2,0q.3,0,.6,0c1.2,0,1.8.2,2.8,1,.7,1,.9,2,.9,3.2,0,.2,0,.4,0,.6,0,.4,0,.8,0,1.3,0,1.3.1,2,1,3,1.6,1.3,3.3,1.1,5.2,1.1.5,0,.9,0,1.4,0q2.6,0,4.8-1c.9-1.1,1-1.9,1-3.3,0-.2,0-.4,0-.6,0-.7,0-1.3,0-2,0-.2,0-.4,0-.7,0-1.2,0-2.4,0-3.6,0-1.2,0-2.4,0-3.7,0-.9,0-1.9,0-2.8,0-.4,0-.9,0-1.3,0-3.2-.2-6.1-1.7-9.1q-.1-.2-.2-.4c-.8-1.5-1.8-2.9-2.8-4.2-.2-.3-.5-.6-.7-.9-.6-.8-1.2-1.6-1.9-2.5-1.1.4-1.9,1-2.9,1.5-3.5,2.2-7.3,3.6-11.4,3.6-.2,0-.3,0-.5,0-.6,0-1.1,0-1.7,0-.4,0-.8,0-1.2,0-1.3,0-2.7,0-4,0-.5,0-.9,0-1.4,0-2.2,0-4.3,0-6.5,0-2.5,0-5,0-7.5,0-1.9,0-3.8,0-5.8,0-1.1,0-2.3,0-3.4,0-1.1,0-2.2,0-3.2,0-.4,0-.8,0-1.2,0-5.8,0-10.7-1.7-15.4-5q-.3-.3-.8-.2Z"/>
    <path class="cls-3" d="M30.1,50.8c-2.2-.5-8.4-1.9-11.2-2.8-.4-.1-.8,0-1.1.3-3.1,3.8-3.1,7.5-2.5,9.3.1.3.4.5.7.6,2.1.3,10.3,1.5,14,1.2.5,0,.8-.5.8-.9v-6.7c0-.5-.3-.9-.8-1Z"/>
    <path class="cls-3" d="M72.9,50.8c2.1-.5,7.7-1.8,10.3-2.7.4-.1.9,0,1.1.3,2.9,3.8,2.8,7.4,2.3,9.2,0,.3-.4.5-.7.6-2.1.3-9.5,1.5-13,1.2-.5,0-.8-.4-.8-.9v-6.7c0-.5.3-.9.8-1Z"/>
  </g>
</svg>