<?xml version="1.0" encoding="UTF-8"?>
<svg id="_Слой_1" data-name="Слой 1" xmlns="http://www.w3.org/2000/svg" version="1.1" viewBox="0 0 103 103">
  <defs>
    <style>
      .cls-1 {
        fill: #666;
        stroke-width: 0px;
      }
    </style>
  </defs>
  <path class="cls-1" d="M64.3,33.4l2.9-3.7-2.7-3.5,1.7-4.1-3.6-2.7.6-4.4-4.2-1.7-.6-4.4-4.5-.6-1.7-4.1-4.5.6-2.7-3.6-4.2,1.7L37.3,0l-3.6,2.7-4.2-1.7-2.7,3.6-4.5-.6-1.7,4.1-4.5.6-.6,4.4-4.2,1.7.6,4.4-3.6,2.7,1.7,4.1-2.7,3.5,2.9,3.7H0v18h7.1v51.6h18.2v-14.9l25.5-9.7,25.5,9.7v14.9h18.2v-51.6h8.6v-18h-38.7ZM17.1,27l-1.3-3.1,2.7-2-.4-3.3,3.1-1.3.4-3.3,3.3-.4,1.3-3.1,3.3.4,2-2.6,3.1,1.3,2.7-2,2.7,2,3.1-1.3,2,2.6,3.3-.4,1.3,3.1,3.3.4.4,3.3,3.1,1.3-.4,3.3,2.7,2-1.3,3.1,2,2.6-1.6,2.1v1.6H16.6v-1.6s-1.6-2.1-1.6-2.1l2-2.6ZM19.2,97h-6.1v-45.6h6.1v45.6ZM25.3,81.6v-13l17,6.5-17,6.5ZM50.8,71.9l-12.2-4.6h24.4l-12.2,4.6ZM76.2,81.6l-17-6.5,17-6.5v13ZM76.2,61.3H25.3v-10h51v10ZM88.3,97h-6.1v-45.6h6.1v45.6ZM96.9,45.3H6.1v-6h10.6s80.3,0,80.3,0v6Z"/>
  <path class="cls-1" d="M37.3,25.3c-1.9,0-3.4,1.5-3.4,3.4s1.5,3.4,3.4,3.4,3.4-1.5,3.4-3.4-1.5-3.4-3.4-3.4Z"/>
</svg>