<?xml version="1.0" encoding="UTF-8"?>
<svg id="_Слой_1" data-name="Слой 1" xmlns="http://www.w3.org/2000/svg" xmlns:xlink="http://www.w3.org/1999/xlink" version="1.1" viewBox="0 0 103 103">
  <defs>
    <style>
      .cls-1 {
        stroke-width: 3.5px;
      }

      .cls-1, .cls-2, .cls-3, .cls-4 {
        fill: none;
      }

      .cls-1, .cls-3, .cls-5, .cls-4 {
        stroke: #666;
      }

      .cls-6 {
        clip-path: url(#clippath);
      }

      .cls-2 {
        stroke-width: 0px;
      }

      .cls-3 {
        stroke-width: 5px;
      }

      .cls-5 {
        fill: #666;
        stroke-miterlimit: 10;
      }

      .cls-4 {
        stroke-width: 6px;
      }
    </style>
    <clipPath id="clippath">
      <rect class="cls-2" y="0" width="103" height="103"/>
    </clipPath>
  </defs>
  <g class="cls-6">
    <g>
      <path class="cls-3" d="M89.1,33.3c.4,1.6,1.9,4.8,4,4.8l7.7,38.9"/>
      <path class="cls-3" d="M32.4,80h45.4c6.2,0,11.2-5,11.2-11.2V13.3c0-2.4-1.9-4.3-4.3-4.3H8.3c-2.4,0-4.3,1.9-4.3,4.3v49s-.1,9.9.8,11.1c.9,1.2,2.9,2.5,2.9,2.5"/>
      <rect class="cls-5" x="5.6" y="21.7" width="82.1" height="5"/>
      <path class="cls-3" d="M18.7,38.1c0,10.8,45.2,14,70.4,15.2v-23.5c-22.1,0-70.4-1.6-70.4,8.3Z"/>
      <path class="cls-3" d="M4.5,55.7c7.8,0,26.8-1.2,32.5-7.2"/>
      <circle class="cls-3" cx="20.3" cy="77.3" r="12.2"/>
      <circle class="cls-3" cx="20.3" cy="77.3" r="5.8"/>
      <path class="cls-3" d="M70.4,78.9c.7,3.4,2.3,10.1,4.3,9.9,1.9-.2,3.4-6.7,3.7-9.9"/>
      <circle class="cls-1" cx="64.3" cy="39.2" r="2.5"/>
      <circle class="cls-1" cx="74.9" cy="39.2" r="2.5"/>
      <path class="cls-3" d="M11.7,22.7c-.4-2,.2-5.9,5.3-6.1,5.1-.2,42.1,0,60,0,1.5.3,4.4,1.9,3.7,6.1"/>
      <path class="cls-3" d="M29.5,68.7s31.1.2,50.5,0c1.6-.7,4.6-4.8,3.9-15.7"/>
      <path class="cls-3" d="M37.1,39.2h16"/>
      <path class="cls-4" d="M13.5,66.5c-1.3-1.7-3.6-6-2-10"/>
    </g>
  </g>
</svg>