<?xml version="1.0" encoding="UTF-8"?>
<svg id="_Слой_1" data-name="Слой 1" xmlns="http://www.w3.org/2000/svg" version="1.1" viewBox="0 0 103 103">
  <defs>
    <style>
      .cls-1 {
        fill: #666;
        stroke-width: 0px;
      }
    </style>
  </defs>
  <path class="cls-1" d="M103,28.1v-4.5c0-8.4-6.8-15.2-15.2-15.2h-48.2c-3.6,0-6.5,2.6-7.1,6h-4.1c-4.4,0-8.1,3.6-8.1,8.1v.4H0v6h20.3v.4c0,4.4,3.6,8.1,8.1,8.1h4.1c.6,3.4,3.5,6,7.1,6h18.1l4.7,11.9h6l4.8,11.5c0,0,0,.2,0,.3,0,.1-.2.1-.3.1h-20.9v27.5h39.7c5.9,0,10.8-4.8,10.8-10.8v-17.5l-10.3-23.6c6.3-1.9,10.9-7.7,10.9-14.6ZM32.3,31.3h-4c-1.1,0-2-.9-2-2v-6.8c0-1.1.9-2,2-2h4v10.9ZM50.6,37.3h-11.1c-.6,0-1.2-.5-1.2-1.2V15.5c0-.6.5-1.2,1.2-1.2h11.1v23ZM96.4,83.9c0,2.6-2.1,4.8-4.8,4.8h-33.7v-5h38.4v.3ZM97,28.1c0,5.1-4.1,9.2-9.2,9.2h-4.6l13.2,30.3v10h-38.4v-4.4h14.8c2.1,0,4-1,5.2-2.8,1.2-1.7,1.4-3.9.7-5.9l-11.3-27.2h-10.8V14.4h31.1c5.1,0,9.2,4.1,9.2,9.2v4.5Z"/>
</svg>