<?xml version="1.0" encoding="UTF-8"?>
<svg id="_Слой_1" data-name="Слой 1" xmlns="http://www.w3.org/2000/svg" xmlns:xlink="http://www.w3.org/1999/xlink" version="1.1" viewBox="0 0 103 103">
  <defs>
    <style>
      .cls-1 {
        clip-path: url(#clippath);
      }

      .cls-2, .cls-3 {
        stroke-width: 0px;
      }

      .cls-2, .cls-4 {
        fill: none;
      }

      .cls-3 {
        fill: #777;
      }

      .cls-4 {
        stroke: #666;
        stroke-miterlimit: 10;
        stroke-width: 6px;
      }
    </style>
    <clipPath id="clippath">
      <rect class="cls-2" y="0" width="103" height="103"/>
    </clipPath>
  </defs>
  <g class="cls-1">
    <path class="cls-4" d="M60.9,54.1c6.8,0,12.2-5.5,12.2-12.2s-5.5-12.2-12.2-12.2-12.2,5.5-12.2,12.2,5.5,12.2,12.2,12.2Z"/>
    <circle class="cls-3" cx="61.4" cy="41.9" r="3.2"/>
    <path class="cls-4" d="M69.3,33.5l24.7-24.8"/>
    <path class="cls-4" d="M56.8,30.4c.5-5.7,3.3-12.8,11.2-20.7,7.8-7.8,20.4-9.2,27.5-2.1,7.1,7.1,5.7,19.7-2.1,27.5-8.1,8.1-15.4,10.8-21.1,11.2"/>
    <path class="cls-4" d="M50.5,35.7c-14.1-4.2-27.5,10.5-27.5,10.5l-18.2,18.2c-2.3,2.3-2.3,6.1,0,8.5,2.3,2.4,6.1,2.3,8.5,0l18.3-18.3s8.8-9.9,18.5-7.4"/>
    <path class="cls-4" d="M55.7,53c2.5,9.8-7.4,18.5-7.4,18.5l-18.3,18.3c-2.3,2.3-2.3,6.1,0,8.5,2.3,2.4,6.1,2.3,8.5,0l18.3-18.3s14.7-13.3,10.5-27.4h0"/>
  </g>
</svg>